<svg width="20" height="20" viewBox="0 0 20 20" fill="none" xmlns="http://www.w3.org/2000/svg">
<path d="M2.92007 1.31982H1.32007V9.19982H2.92007V1.31982Z" fill="black"/>
<path d="M9.2001 1.31982H7.6001V9.19982H9.2001V1.31982Z" fill="black"/>
<path d="M2.92007 10.7598H1.32007V15.5598H2.92007V10.7598Z" fill="black"/>
<path d="M8.52012 15.56V13.96H2.12012V15.56H8.52012Z" fill="black"/>
<path d="M9.2001 10.7598H7.6001V15.5598H9.2001V10.7598Z" fill="black"/>
<path d="M6.07998 13.96H4.47998V18.76H6.07998V13.96Z" fill="black"/>
<path d="M12.36 1.31982H10.76V9.19982H12.36V1.31982Z" fill="black"/>
<path d="M18.64 1.31982H17.04V9.19982H18.64V1.31982Z" fill="black"/>
<path d="M18.6401 1.31982H12.3601V2.91982H18.6401V1.31982Z" fill="black"/>
<path d="M18.6401 7.6001H12.3601V9.2001H18.6401V7.6001Z" fill="black"/>
<path d="M6.07998 2.91992H4.47998V4.51992H6.07998V2.91992Z" fill="black"/>
<path d="M6.07998 10.7598H4.47998V12.3598H6.07998V10.7598Z" fill="black"/>
<path d="M15.5199 4.47998H13.9199V6.07998H15.5199V4.47998Z" fill="black"/>
<path d="M12.36 10.7598H10.76V18.6398H12.36V10.7598Z" fill="black"/>
<path d="M18.64 10.7598H17.04V18.6398H18.64V10.7598Z" fill="black"/>
<path d="M18.6401 10.7598H12.3601V12.3598H18.6401V10.7598Z" fill="black"/>
<path d="M15.5199 15.5601H13.9199V17.1601H15.5199V15.5601Z" fill="black"/>
</svg>
